<svg width="162" height="32" viewBox="0 0 162 32" fill="none" xmlns="http://www.w3.org/2000/svg">
<path d="M2.856 25.24C2.44 25.24 2.104 25.128 1.848 24.904C1.608 24.68 1.488 24.368 1.488 23.968V13.744C1.488 11.936 2 10.52 3.024 9.496C4.064 8.472 5.48 7.96 7.272 7.96C8.184 7.96 9.04 8.192 9.84 8.656C10.656 9.12 11.32 9.76 11.832 10.576C12.344 9.744 13 9.104 13.8 8.656C14.6 8.192 15.48 7.96 16.44 7.96C18.248 7.96 19.656 8.472 20.664 9.496C21.688 10.52 22.2 11.936 22.2 13.744V23.968C22.2 24.352 22.072 24.664 21.816 24.904C21.576 25.128 21.248 25.24 20.832 25.24C20.416 25.24 20.08 25.128 19.824 24.904C19.584 24.68 19.464 24.368 19.464 23.968V13.744C19.464 12.512 19.216 11.608 18.72 11.032C18.24 10.456 17.448 10.168 16.344 10.168C15.336 10.168 14.56 10.48 14.016 11.104C13.472 11.728 13.2 12.608 13.2 13.744V23.968C13.2 24.368 13.072 24.68 12.816 24.904C12.576 25.128 12.248 25.24 11.832 25.24C11.416 25.24 11.088 25.128 10.848 24.904C10.624 24.68 10.512 24.368 10.512 23.968V13.744C10.512 12.624 10.232 11.752 9.672 11.128C9.112 10.488 8.344 10.168 7.368 10.168C6.248 10.168 5.44 10.456 4.944 11.032C4.464 11.608 4.224 12.512 4.224 13.744V23.968C4.224 24.352 4.096 24.664 3.84 24.904C3.6 25.128 3.272 25.24 2.856 25.24ZM33.2939 25.24C31.5179 25.24 29.9579 24.88 28.6139 24.16C27.2859 23.44 26.2619 22.424 25.5419 21.112C24.8219 19.8 24.4619 18.296 24.4619 16.6C24.4619 14.904 24.8219 13.4 25.5419 12.088C26.2619 10.776 27.2859 9.76 28.6139 9.04C29.9579 8.32 31.5179 7.96 33.2939 7.96C35.0699 7.96 36.6219 8.32 37.9499 9.04C39.2939 9.76 40.3259 10.776 41.0459 12.088C41.7659 13.4 42.1259 14.904 42.1259 16.6C42.1259 18.296 41.7659 19.8 41.0459 21.112C40.3259 22.424 39.2939 23.44 37.9499 24.16C36.6219 24.88 35.0699 25.24 33.2939 25.24ZM33.2939 23.056C35.1659 23.056 36.6459 22.48 37.7339 21.328C38.8219 20.176 39.3659 18.6 39.3659 16.6C39.3659 14.584 38.8059 13.008 37.6859 11.872C36.5819 10.72 35.0699 10.144 33.1499 10.144C31.9339 10.144 30.8779 10.408 29.9819 10.936C29.0859 11.464 28.3979 12.216 27.9179 13.192C27.4379 14.168 27.1979 15.304 27.1979 16.6C27.1979 17.928 27.4459 19.08 27.9419 20.056C28.4379 21.016 29.1419 21.76 30.0539 22.288C30.9659 22.8 32.0459 23.056 33.2939 23.056ZM45.6288 25.24C45.2128 25.24 44.8848 25.128 44.6448 24.904C44.4048 24.68 44.2848 24.368 44.2848 23.968V14.656C44.2848 12.56 44.9328 10.92 46.2288 9.736C47.5408 8.552 49.3408 7.96 51.6288 7.96C53.1328 7.96 54.4368 8.232 55.5408 8.776C56.6448 9.304 57.4848 10.072 58.0608 11.08C58.6528 12.088 58.9488 13.28 58.9488 14.656V23.968C58.9488 24.368 58.8288 24.68 58.5888 24.904C58.3488 25.128 58.0208 25.24 57.6048 25.24C57.1888 25.24 56.8528 25.128 56.5968 24.904C56.3568 24.664 56.2368 24.352 56.2368 23.968V14.584C56.2368 13.16 55.8368 12.064 55.0368 11.296C54.2368 10.528 53.1008 10.144 51.6288 10.144C50.1568 10.144 49.0128 10.536 48.1968 11.32C47.3968 12.088 46.9968 13.176 46.9968 14.584V23.968C46.9968 24.352 46.8688 24.664 46.6128 24.904C46.3728 25.128 46.0448 25.24 45.6288 25.24ZM70.0644 25.24C68.3044 25.24 66.7684 24.896 65.4564 24.208C64.1604 23.504 63.1604 22.504 62.4564 21.208C61.7684 19.912 61.4244 18.384 61.4244 16.624C61.4244 14.864 61.7684 13.336 62.4564 12.04C63.1604 10.728 64.1604 9.72 65.4564 9.016C66.7524 8.312 68.2804 7.96 70.0404 7.96C71.4804 7.96 72.8164 8.208 74.0484 8.704C75.2804 9.2 76.2084 9.872 76.8324 10.72C77.0084 10.976 77.0964 11.208 77.0964 11.416C77.0964 11.768 76.9124 12.08 76.5444 12.352C76.3364 12.48 76.1204 12.544 75.8964 12.544C75.6884 12.544 75.4804 12.496 75.2724 12.4C75.0804 12.304 74.9124 12.176 74.7684 12.016C74.2404 11.376 73.5844 10.904 72.8004 10.6C72.0324 10.296 71.1124 10.144 70.0404 10.144C68.2004 10.144 66.7604 10.72 65.7204 11.872C64.6964 13.008 64.1844 14.592 64.1844 16.624C64.1844 18.624 64.7044 20.2 65.7444 21.352C66.7844 22.488 68.2244 23.056 70.0644 23.056C72.2404 23.056 73.9124 22.432 75.0804 21.184C75.4644 20.8 75.8564 20.608 76.2564 20.608C76.5124 20.608 76.7444 20.688 76.9524 20.848C77.2724 21.12 77.4324 21.416 77.4324 21.736C77.4324 22.008 77.3364 22.264 77.1444 22.504C76.4564 23.352 75.4884 24.024 74.2404 24.52C72.9924 25 71.6004 25.24 70.0644 25.24ZM88.7846 25.24C87.0086 25.24 85.4486 24.88 84.1046 24.16C82.7766 23.44 81.7526 22.424 81.0326 21.112C80.3126 19.8 79.9526 18.296 79.9526 16.6C79.9526 14.904 80.3126 13.4 81.0326 12.088C81.7526 10.776 82.7766 9.76 84.1046 9.04C85.4486 8.32 87.0086 7.96 88.7846 7.96C90.5606 7.96 92.1126 8.32 93.4406 9.04C94.7846 9.76 95.8166 10.776 96.5366 12.088C97.2566 13.4 97.6166 14.904 97.6166 16.6C97.6166 18.296 97.2566 19.8 96.5366 21.112C95.8166 22.424 94.7846 23.44 93.4406 24.16C92.1126 24.88 90.5606 25.24 88.7846 25.24ZM88.7846 23.056C90.6566 23.056 92.1366 22.48 93.2246 21.328C94.3126 20.176 94.8566 18.6 94.8566 16.6C94.8566 14.584 94.2966 13.008 93.1766 11.872C92.0726 10.72 90.5606 10.144 88.6406 10.144C87.4246 10.144 86.3686 10.408 85.4726 10.936C84.5766 11.464 83.8886 12.216 83.4086 13.192C82.9286 14.168 82.6886 15.304 82.6886 16.6C82.6886 17.928 82.9366 19.08 83.4326 20.056C83.9286 21.016 84.6326 21.76 85.5446 22.288C86.4566 22.8 87.5366 23.056 88.7846 23.056ZM101.119 25.24C100.703 25.24 100.375 25.128 100.135 24.904C99.8954 24.68 99.7754 24.368 99.7754 23.968V14.656C99.7754 12.56 100.423 10.92 101.719 9.736C103.031 8.552 104.831 7.96 107.119 7.96C108.623 7.96 109.927 8.232 111.031 8.776C112.135 9.304 112.975 10.072 113.551 11.08C114.143 12.088 114.439 13.28 114.439 14.656V23.968C114.439 24.368 114.319 24.68 114.079 24.904C113.839 25.128 113.511 25.24 113.095 25.24C112.679 25.24 112.343 25.128 112.087 24.904C111.847 24.664 111.727 24.352 111.727 23.968V14.584C111.727 13.16 111.327 12.064 110.527 11.296C109.727 10.528 108.591 10.144 107.119 10.144C105.647 10.144 104.503 10.536 103.687 11.32C102.887 12.088 102.487 13.176 102.487 14.584V23.968C102.487 24.352 102.359 24.664 102.103 24.904C101.863 25.128 101.535 25.24 101.119 25.24ZM118.636 24.976C118.252 24.976 117.924 24.848 117.652 24.592C117.38 24.32 117.244 24.008 117.244 23.656C117.244 23.288 117.38 22.968 117.652 22.696C117.924 22.424 118.252 22.288 118.636 22.288C119.004 22.288 119.324 22.424 119.596 22.696C119.868 22.968 120.004 23.288 120.004 23.656C120.004 24.008 119.868 24.32 119.596 24.592C119.324 24.848 119.004 24.976 118.636 24.976ZM124.952 25.24C124.68 25.24 124.464 25.16 124.304 25C124.144 24.824 124.064 24.584 124.064 24.28V8.92C124.064 8.616 124.144 8.384 124.304 8.224C124.464 8.048 124.68 7.96 124.952 7.96C125.24 7.96 125.464 8.048 125.624 8.224C125.784 8.4 125.864 8.632 125.864 8.92V24.28C125.864 24.568 125.784 24.8 125.624 24.976C125.464 25.152 125.24 25.24 124.952 25.24ZM138.565 25.24C136.949 25.24 135.493 24.888 134.197 24.184C132.901 23.464 131.877 22.448 131.125 21.136C130.389 19.824 130.021 18.312 130.021 16.6C130.021 14.872 130.389 13.36 131.125 12.064C131.877 10.752 132.901 9.744 134.197 9.04C135.493 8.32 136.949 7.96 138.565 7.96C140.181 7.96 141.637 8.32 142.933 9.04C144.229 9.744 145.245 10.752 145.981 12.064C146.733 13.36 147.109 14.872 147.109 16.6C147.109 18.312 146.733 19.824 145.981 21.136C145.245 22.448 144.229 23.464 142.933 24.184C141.637 24.888 140.181 25.24 138.565 25.24ZM138.565 23.704C139.861 23.704 141.013 23.424 142.021 22.864C143.045 22.304 143.845 21.496 144.421 20.44C145.013 19.368 145.309 18.088 145.309 16.6C145.309 15.096 145.005 13.808 144.397 12.736C143.805 11.664 142.989 10.856 141.949 10.312C140.925 9.768 139.781 9.496 138.517 9.496C137.237 9.496 136.085 9.776 135.061 10.336C134.053 10.896 133.261 11.712 132.685 12.784C132.109 13.856 131.821 15.128 131.821 16.6C131.821 18.088 132.109 19.368 132.685 20.44C133.277 21.496 134.077 22.304 135.085 22.864C136.109 23.424 137.269 23.704 138.565 23.704Z" fill="#F7F7F7"/>
</svg>
