<svg width="147" height="19" viewBox="0 0 147 19" fill="none" xmlns="http://www.w3.org/2000/svg">
<path d="M1.856 18.24C1.44 18.24 1.104 18.128 0.848 17.904C0.608 17.68 0.488 17.368 0.488 16.968V6.744C0.488 4.936 1 3.52 2.024 2.496C3.064 1.472 4.48 0.959999 6.272 0.959999C7.184 0.959999 8.04 1.192 8.84 1.656C9.656 2.12 10.32 2.76 10.832 3.576C11.344 2.744 12 2.104 12.8 1.656C13.6 1.192 14.48 0.959999 15.44 0.959999C17.248 0.959999 18.656 1.472 19.664 2.496C20.688 3.52 21.2 4.936 21.2 6.744V16.968C21.2 17.352 21.072 17.664 20.816 17.904C20.576 18.128 20.248 18.24 19.832 18.24C19.416 18.24 19.08 18.128 18.824 17.904C18.584 17.68 18.464 17.368 18.464 16.968V6.744C18.464 5.512 18.216 4.608 17.72 4.032C17.24 3.456 16.448 3.168 15.344 3.168C14.336 3.168 13.56 3.48 13.016 4.104C12.472 4.728 12.2 5.608 12.2 6.744V16.968C12.2 17.368 12.072 17.68 11.816 17.904C11.576 18.128 11.248 18.24 10.832 18.24C10.416 18.24 10.088 18.128 9.848 17.904C9.624 17.68 9.512 17.368 9.512 16.968V6.744C9.512 5.624 9.232 4.752 8.672 4.128C8.112 3.488 7.344 3.168 6.368 3.168C5.248 3.168 4.44 3.456 3.944 4.032C3.464 4.608 3.224 5.512 3.224 6.744V16.968C3.224 17.352 3.096 17.664 2.84 17.904C2.6 18.128 2.272 18.24 1.856 18.24ZM32.2939 18.24C30.5179 18.24 28.9579 17.88 27.6139 17.16C26.2859 16.44 25.2619 15.424 24.5419 14.112C23.8219 12.8 23.4619 11.296 23.4619 9.6C23.4619 7.904 23.8219 6.4 24.5419 5.088C25.2619 3.776 26.2859 2.76 27.6139 2.04C28.9579 1.32 30.5179 0.959999 32.2939 0.959999C34.0699 0.959999 35.6219 1.32 36.9499 2.04C38.2939 2.76 39.3259 3.776 40.0459 5.088C40.7659 6.4 41.1259 7.904 41.1259 9.6C41.1259 11.296 40.7659 12.8 40.0459 14.112C39.3259 15.424 38.2939 16.44 36.9499 17.16C35.6219 17.88 34.0699 18.24 32.2939 18.24ZM32.2939 16.056C34.1659 16.056 35.6459 15.48 36.7339 14.328C37.8219 13.176 38.3659 11.6 38.3659 9.6C38.3659 7.584 37.8059 6.008 36.6859 4.872C35.5819 3.72 34.0699 3.144 32.1499 3.144C30.9339 3.144 29.8779 3.408 28.9819 3.936C28.0859 4.464 27.3979 5.216 26.9179 6.192C26.4379 7.168 26.1979 8.304 26.1979 9.6C26.1979 10.928 26.4459 12.08 26.9419 13.056C27.4379 14.016 28.1419 14.76 29.0539 15.288C29.9659 15.8 31.0459 16.056 32.2939 16.056ZM44.6288 18.24C44.2128 18.24 43.8848 18.128 43.6448 17.904C43.4048 17.68 43.2848 17.368 43.2848 16.968V7.656C43.2848 5.56 43.9328 3.92 45.2288 2.736C46.5408 1.552 48.3408 0.959999 50.6288 0.959999C52.1328 0.959999 53.4368 1.232 54.5408 1.776C55.6448 2.304 56.4848 3.072 57.0608 4.08C57.6528 5.088 57.9488 6.28 57.9488 7.656V16.968C57.9488 17.368 57.8288 17.68 57.5888 17.904C57.3488 18.128 57.0208 18.24 56.6048 18.24C56.1888 18.24 55.8528 18.128 55.5968 17.904C55.3568 17.664 55.2368 17.352 55.2368 16.968V7.584C55.2368 6.16 54.8368 5.064 54.0368 4.296C53.2368 3.528 52.1008 3.144 50.6288 3.144C49.1568 3.144 48.0128 3.536 47.1968 4.32C46.3968 5.088 45.9968 6.176 45.9968 7.584V16.968C45.9968 17.352 45.8688 17.664 45.6128 17.904C45.3728 18.128 45.0448 18.24 44.6288 18.24ZM69.0644 18.24C67.3044 18.24 65.7684 17.896 64.4564 17.208C63.1604 16.504 62.1604 15.504 61.4564 14.208C60.7684 12.912 60.4244 11.384 60.4244 9.624C60.4244 7.864 60.7684 6.336 61.4564 5.04C62.1604 3.728 63.1604 2.72 64.4564 2.016C65.7524 1.312 67.2804 0.959999 69.0404 0.959999C70.4804 0.959999 71.8164 1.208 73.0484 1.704C74.2804 2.2 75.2084 2.872 75.8324 3.72C76.0084 3.976 76.0964 4.208 76.0964 4.416C76.0964 4.768 75.9124 5.08 75.5444 5.352C75.3364 5.48 75.1204 5.544 74.8964 5.544C74.6884 5.544 74.4804 5.496 74.2724 5.4C74.0804 5.304 73.9124 5.176 73.7684 5.016C73.2404 4.376 72.5844 3.904 71.8004 3.6C71.0324 3.296 70.1124 3.144 69.0404 3.144C67.2004 3.144 65.7604 3.72 64.7204 4.872C63.6964 6.008 63.1844 7.592 63.1844 9.624C63.1844 11.624 63.7044 13.2 64.7444 14.352C65.7844 15.488 67.2244 16.056 69.0644 16.056C71.2404 16.056 72.9124 15.432 74.0804 14.184C74.4644 13.8 74.8564 13.608 75.2564 13.608C75.5124 13.608 75.7444 13.688 75.9524 13.848C76.2724 14.12 76.4324 14.416 76.4324 14.736C76.4324 15.008 76.3364 15.264 76.1444 15.504C75.4564 16.352 74.4884 17.024 73.2404 17.52C71.9924 18 70.6004 18.24 69.0644 18.24ZM87.7846 18.24C86.0086 18.24 84.4486 17.88 83.1046 17.16C81.7766 16.44 80.7526 15.424 80.0326 14.112C79.3126 12.8 78.9526 11.296 78.9526 9.6C78.9526 7.904 79.3126 6.4 80.0326 5.088C80.7526 3.776 81.7766 2.76 83.1046 2.04C84.4486 1.32 86.0086 0.959999 87.7846 0.959999C89.5606 0.959999 91.1126 1.32 92.4406 2.04C93.7846 2.76 94.8166 3.776 95.5366 5.088C96.2566 6.4 96.6166 7.904 96.6166 9.6C96.6166 11.296 96.2566 12.8 95.5366 14.112C94.8166 15.424 93.7846 16.44 92.4406 17.16C91.1126 17.88 89.5606 18.24 87.7846 18.24ZM87.7846 16.056C89.6566 16.056 91.1366 15.48 92.2246 14.328C93.3126 13.176 93.8566 11.6 93.8566 9.6C93.8566 7.584 93.2966 6.008 92.1766 4.872C91.0726 3.72 89.5606 3.144 87.6406 3.144C86.4246 3.144 85.3686 3.408 84.4726 3.936C83.5766 4.464 82.8886 5.216 82.4086 6.192C81.9286 7.168 81.6886 8.304 81.6886 9.6C81.6886 10.928 81.9366 12.08 82.4326 13.056C82.9286 14.016 83.6326 14.76 84.5446 15.288C85.4566 15.8 86.5366 16.056 87.7846 16.056ZM100.119 18.24C99.7034 18.24 99.3754 18.128 99.1354 17.904C98.8954 17.68 98.7754 17.368 98.7754 16.968V7.656C98.7754 5.56 99.4234 3.92 100.719 2.736C102.031 1.552 103.831 0.959999 106.119 0.959999C107.623 0.959999 108.927 1.232 110.031 1.776C111.135 2.304 111.975 3.072 112.551 4.08C113.143 5.088 113.439 6.28 113.439 7.656V16.968C113.439 17.368 113.319 17.68 113.079 17.904C112.839 18.128 112.511 18.24 112.095 18.24C111.679 18.24 111.343 18.128 111.087 17.904C110.847 17.664 110.727 17.352 110.727 16.968V7.584C110.727 6.16 110.327 5.064 109.527 4.296C108.727 3.528 107.591 3.144 106.119 3.144C104.647 3.144 103.503 3.536 102.687 4.32C101.887 5.088 101.487 6.176 101.487 7.584V16.968C101.487 17.352 101.359 17.664 101.103 17.904C100.863 18.128 100.535 18.24 100.119 18.24ZM117.636 17.976C117.252 17.976 116.924 17.848 116.652 17.592C116.38 17.32 116.244 17.008 116.244 16.656C116.244 16.288 116.38 15.968 116.652 15.696C116.924 15.424 117.252 15.288 117.636 15.288C118.004 15.288 118.324 15.424 118.596 15.696C118.868 15.968 119.004 16.288 119.004 16.656C119.004 17.008 118.868 17.32 118.596 17.592C118.324 17.848 118.004 17.976 117.636 17.976ZM123.952 18.24C123.68 18.24 123.464 18.16 123.304 18C123.144 17.824 123.064 17.584 123.064 17.28V1.92C123.064 1.616 123.144 1.384 123.304 1.224C123.464 1.048 123.68 0.959999 123.952 0.959999C124.24 0.959999 124.464 1.048 124.624 1.224C124.784 1.4 124.864 1.632 124.864 1.92V17.28C124.864 17.568 124.784 17.8 124.624 17.976C124.464 18.152 124.24 18.24 123.952 18.24ZM137.565 18.24C135.949 18.24 134.493 17.888 133.197 17.184C131.901 16.464 130.877 15.448 130.125 14.136C129.389 12.824 129.021 11.312 129.021 9.6C129.021 7.872 129.389 6.36 130.125 5.064C130.877 3.752 131.901 2.744 133.197 2.04C134.493 1.32 135.949 0.959999 137.565 0.959999C139.181 0.959999 140.637 1.32 141.933 2.04C143.229 2.744 144.245 3.752 144.981 5.064C145.733 6.36 146.109 7.872 146.109 9.6C146.109 11.312 145.733 12.824 144.981 14.136C144.245 15.448 143.229 16.464 141.933 17.184C140.637 17.888 139.181 18.24 137.565 18.24ZM137.565 16.704C138.861 16.704 140.013 16.424 141.021 15.864C142.045 15.304 142.845 14.496 143.421 13.44C144.013 12.368 144.309 11.088 144.309 9.6C144.309 8.096 144.005 6.808 143.397 5.736C142.805 4.664 141.989 3.856 140.949 3.312C139.925 2.768 138.781 2.496 137.517 2.496C136.237 2.496 135.085 2.776 134.061 3.336C133.053 3.896 132.261 4.712 131.685 5.784C131.109 6.856 130.821 8.128 130.821 9.6C130.821 11.088 131.109 12.368 131.685 13.44C132.277 14.496 133.077 15.304 134.085 15.864C135.109 16.424 136.269 16.704 137.565 16.704Z" fill="#F7F7F7"/>
</svg>
